# xmcd
# 
# Track frame offsets:
#     150
#     17541
#     34609
#     49643
#     66526
#     82844
#     91308
#     105786
#     121138
#     144281
#     160901
# 
# Disc length: 2208
# 
# Revision: 1
# Processed by: cddbd v1.5.2PL0 Copyright (c) Steve Scherf et al.
# Submitted via: fre:ac v1.1beta1pre5
# 
DISCID=78089e0b
DTITLE=Sconosciuto - Sconosciuto
DYEAR=1970
DGENRE=Blues
TTITLE0=Traccia 1
TTITLE1=Traccia 2
TTITLE2=Traccia 3
TTITLE3=Traccia 4
TTITLE4=Traccia 5
TTITLE5=Traccia 6
TTITLE6=Traccia 7
TTITLE7=Traccia 8
TTITLE8=Traccia 9
TTITLE9=Traccia 10
TTITLE10=Traccia 11
EXTD=ID3G:   0
EXTT0=
EXTT1=
EXTT2=
EXTT3=
EXTT4=
EXTT5=
EXTT6=
EXTT7=
EXTT8=
EXTT9=
EXTT10=
PLAYORDER=
